<?xml version="1.0" encoding="utf-8"?>
<svg version="1.1" id="pwa_logo" xmlns:serif="http://www.serif.com/"
	 xmlns="http://www.w3.org/2000/svg" xmlns:xlink="http://www.w3.org/1999/xlink" x="0px" y="0px" viewBox="0 0 256 256"
	 style="enable-background:new 0 0 256 256;" xml:space="preserve">
<style type="text/css">
	.st0{fill:#3A3A3A;}
	.st1{fill:#580FC3;}
</style>
<g transform="matrix(7.83465,0,0,7.83465,-398.586,-488.321)">
	<path class="st0" d="M75.1,82.9l0.9-2.4h2.7l-1.3-3.6l1.6-4.1l4.6,12.3h-3.4l-0.8-2.2L75.1,82.9L75.1,82.9z"/>
</g>
<g transform="matrix(7.83465,0,0,7.83465,-398.586,-488.321)">
	<path class="st1" d="M72,84.5l5-12.3h-3.3l-3.4,7.9l-2.4-7.9h-2.5l-2.6,7.9L61,76.5l-1.7,5.1l1.7,2.9h3.2l2.3-7.1l2.2,7.1H72z"/>
</g>
<g transform="matrix(7.83465,0,0,7.83465,-398.586,-488.321)">
	<path class="st0" d="M54.1,80.3h2c0.6,0,1.2-0.1,1.6-0.2l0.5-1.6l1.5-4.5c-0.1-0.2-0.2-0.3-0.4-0.5c-0.8-0.8-1.8-1.2-3.3-1.2h-5.1
		v12.3h3.2V80.3z M56.8,75c0.3,0.3,0.4,0.7,0.4,1.2s-0.1,0.9-0.4,1.2c-0.3,0.3-0.8,0.5-1.6,0.5h-1.1v-3.3h1.2
		C56,74.6,56.5,74.7,56.8,75z"/>
</g>
</svg>
