<svg width="18" height="18" viewBox="0 0 18 18" fill="none" xmlns="http://www.w3.org/2000/svg">
<path d="M15.3001 1.8H13.5001V0.9C13.5001 0.661305 13.4052 0.432387 13.2365 0.263604C13.0677 0.0948211 12.8388 0 12.6001 0C12.3614 0 12.1324 0.0948211 11.9637 0.263604C11.7949 0.432387 11.7001 0.661305 11.7001 0.9V1.8H6.30006V0.9C6.30006 0.661305 6.20524 0.432387 6.03646 0.263604C5.86767 0.0948211 5.63876 0 5.40006 0C5.16137 0 4.93245 0.0948211 4.76367 0.263604C4.59488 0.432387 4.50006 0.661305 4.50006 0.9V1.8H2.70006C1.98398 1.8 1.29722 2.08446 0.790873 2.59081C0.284525 3.09716 6.10352e-05 3.78392 6.10352e-05 4.5V15.3C6.10352e-05 16.0161 0.284525 16.7028 0.790873 17.2092C1.29722 17.7155 1.98398 18 2.70006 18H15.3001C16.0161 18 16.7029 17.7155 17.2092 17.2092C17.7156 16.7028 18.0001 16.0161 18.0001 15.3V4.5C18.0001 3.78392 17.7156 3.09716 17.2092 2.59081C16.7029 2.08446 16.0161 1.8 15.3001 1.8ZM16.2001 15.3C16.2001 15.5387 16.1052 15.7676 15.9365 15.9364C15.7677 16.1052 15.5388 16.2 15.3001 16.2H2.70006C2.46137 16.2 2.23245 16.1052 2.06367 15.9364C1.89488 15.7676 1.80006 15.5387 1.80006 15.3V9H16.2001V15.3ZM16.2001 7.2H1.80006V4.5C1.80006 4.2613 1.89488 4.03239 2.06367 3.8636C2.23245 3.69482 2.46137 3.6 2.70006 3.6H4.50006V4.5C4.50006 4.73869 4.59488 4.96761 4.76367 5.1364C4.93245 5.30518 5.16137 5.4 5.40006 5.4C5.63876 5.4 5.86767 5.30518 6.03646 5.1364C6.20524 4.96761 6.30006 4.73869 6.30006 4.5V3.6H11.7001V4.5C11.7001 4.73869 11.7949 4.96761 11.9637 5.1364C12.1324 5.30518 12.3614 5.4 12.6001 5.4C12.8388 5.4 13.0677 5.30518 13.2365 5.1364C13.4052 4.96761 13.5001 4.73869 13.5001 4.5V3.6H15.3001C15.5388 3.6 15.7677 3.69482 15.9365 3.8636C16.1052 4.03239 16.2001 4.2613 16.2001 4.5V7.2Z" fill="#FF553E"/>
</svg>
