<svg width="1412" height="1412" viewBox="0 0 1412 1412" fill="none" xmlns="http://www.w3.org/2000/svg">
<circle cx="706" cy="706" r="706" fill="#FF553E"/>
<path d="M437.849 696.871L437.849 696.872C434.272 706.203 435 712.868 439.853 717.241C444.783 721.682 454.106 723.913 468.148 723.913C482.19 723.913 491.512 721.682 496.441 717.241C501.293 712.868 502.021 706.203 498.447 696.871M437.849 696.871L498.447 696.871M437.849 696.871C438.972 693.937 441.854 691.697 446.864 690.193C451.869 688.69 458.902 687.952 468.148 687.952C477.391 687.952 484.422 688.69 489.428 690.193C494.437 691.697 497.321 693.937 498.447 696.871M437.849 696.871L498.913 696.693L498.447 696.871M933.377 401.039L906.287 427.632L906.554 427.904L906.287 427.632L879.08 454.345L858.929 441.953C818.235 416.921 765.001 403.588 705.892 403.588C614.695 403.588 547.71 432.381 485.37 498.37C430.979 555.945 404.037 624.711 404.037 705.933C404.037 876.831 535.266 1008.28 705.892 1008.28C828.635 1008.28 927.885 944.695 981.455 831.764C991.529 810.531 997.191 797.202 1000.6 782.129C1004.01 767.063 1005.16 750.276 1006.26 722.135C1007.88 680.805 1005.8 648.945 1000.1 627.828L991.586 596.307L1020.19 563.829L1048.42 531.77L1061.42 566.557C1081.29 619.72 1086.57 648.404 1086.74 704.092C1086.93 771.127 1078.28 809.768 1049.83 868.959C1009.24 953.392 953.309 1009.42 868.731 1050.39C805.91 1080.81 758.592 1089.84 682.752 1085.85C528.579 1077.75 400.498 980.945 344.872 830.452C335.499 805.094 329.177 769.554 326.584 733.13C323.992 696.709 325.132 659.45 330.656 630.658L330.164 630.564L330.656 630.658C335.281 606.545 347.09 574.61 361.8 543.843C376.51 513.076 394.098 483.524 410.256 464.167C461.546 402.716 542.584 350.984 615.048 333.418C635.532 328.454 667.892 325.699 700.47 325.308C733.047 324.916 765.782 326.887 787.016 331.352L787.119 330.862L787.016 331.352C805.243 335.182 833.039 345.306 858.986 356.716C884.945 368.131 908.965 380.793 919.676 389.676L933.377 401.039ZM702.673 687.685L703.027 688.034L703.378 687.683L863.211 527.581C948.378 442.272 992.311 398.661 1018.57 379.737C1031.71 370.272 1040.31 367.069 1047.37 367.802C1054.43 368.536 1060.09 373.219 1067.35 379.985C1075.15 387.266 1080.84 396.755 1083.67 406.031C1086.5 415.32 1086.44 424.313 1082.89 430.658C1082.73 430.933 1082.27 431.561 1081.48 432.558C1080.7 433.541 1079.62 434.852 1078.27 436.474C1075.55 439.718 1071.72 444.198 1066.89 449.773C1057.23 460.923 1043.59 476.449 1026.98 495.218C993.767 532.755 948.663 583.262 899.688 637.677C812.026 735.08 767.431 784.527 742.057 809.402C729.364 821.845 721.522 828.097 715.536 831.135C709.598 834.149 705.476 834.009 700.125 833.559C695.244 833.148 691.209 832.473 687.313 830.933C683.419 829.395 679.635 826.982 675.275 823.06C666.535 815.196 655.55 801.333 636.81 776.473C607.337 737.372 587.798 710.348 575.63 691.416C569.545 681.95 565.311 674.52 562.6 668.622C559.885 662.717 558.717 658.392 558.717 655.124C558.717 653.604 559.214 651.608 560.149 649.283C561.082 646.966 562.434 644.357 564.111 641.621C567.463 636.149 572.092 630.2 577.184 625.102C583.462 618.817 589.193 614.454 594.974 612.134C600.737 609.822 606.579 609.529 613.114 611.439C619.666 613.355 626.927 617.489 635.498 624.058C644.066 630.624 653.916 639.601 665.65 651.174L702.673 687.685ZM685.737 445.511L685.738 445.51C686.23 445.016 687.094 444.507 688.286 444.025C689.467 443.547 690.927 443.111 692.571 442.743C695.859 442.006 699.845 441.548 703.726 441.548C709.303 441.548 713.85 444.201 717.226 448.43C720.609 452.669 722.807 458.484 723.639 464.743C725.306 477.289 721.468 491.375 711.077 497.927C702.352 503.426 695.094 503.497 690.018 499.228C684.88 494.907 681.779 485.999 681.779 473.068C681.779 466.541 682.239 460.152 682.979 455.12C683.349 452.603 683.788 450.436 684.27 448.766C684.511 447.931 684.76 447.229 685.014 446.674C685.27 446.111 685.516 445.731 685.737 445.511ZM550.537 566.069L550.537 566.069C546.486 568.612 543.181 569.408 539.401 568.231C535.556 567.034 531.155 563.779 524.994 557.985C516.789 550.268 511.625 540.302 510.108 531.649C508.584 522.957 510.752 515.823 516.871 513.351C523.239 510.779 526.737 509.706 530.765 510.84C532.797 511.412 534.994 512.555 537.772 514.418C540.551 516.281 543.882 518.843 548.186 522.231C557.275 529.391 562.005 537.762 562.41 545.6C562.814 553.416 558.923 560.81 550.537 566.069ZM557.586 850.719L557.971 850.4L557.586 850.719C562.718 856.909 564.152 863.7 562.091 870.62C560.022 877.57 554.408 884.712 545.31 891.506C537.584 897.274 530.636 899.68 525.004 899.653C519.387 899.627 515.055 897.184 512.485 893.18C507.33 885.15 509.135 870.546 522.734 856.052C530.456 847.826 536.642 843.466 542.122 842.648C547.531 841.841 552.409 844.474 557.586 850.719ZM938.078 722.713C930.427 723.204 924.079 723.056 918.984 722.244C913.886 721.432 910.082 719.962 907.482 717.843C904.898 715.738 903.468 712.965 903.156 709.455C902.842 705.926 903.658 701.636 905.615 696.533C906.277 694.805 907.253 693.411 908.671 692.302C910.095 691.189 911.989 690.344 914.511 689.754C919.572 688.572 927.056 688.444 938.078 689.153C944.738 689.579 949.878 689.996 953.849 690.598C957.827 691.201 960.578 691.983 962.489 693.111C964.372 694.222 965.46 695.679 966.091 697.711C966.731 699.775 966.899 702.432 966.899 705.933C966.899 709.434 966.731 712.09 966.091 714.154C965.46 716.186 964.372 717.644 962.489 718.755C960.578 719.883 957.827 720.665 953.849 721.268C949.878 721.87 944.738 722.286 938.078 722.713ZM853.483 885.572C846.021 877.282 841.829 871.742 840.133 867.071C839.292 864.753 839.069 862.656 839.369 860.542C839.67 858.419 840.502 856.252 841.812 853.802C846.133 845.723 851.462 842.105 857.909 842.649C864.444 843.202 872.295 848.032 881.603 857.35C890.168 865.929 894.401 873.801 894.481 880.739C894.56 887.633 890.535 893.768 882.181 898.891C879.897 900.293 877.92 901.176 876.012 901.482C874.118 901.786 872.259 901.528 870.195 900.584C866.019 898.674 861.061 893.989 853.483 885.572ZM682.885 947.084C682.342 941.441 682.223 935.339 682.466 930.057C682.709 924.755 683.316 920.346 684.195 918.05C686.124 913.017 691.677 910.239 698.122 909.994C704.549 909.75 711.702 912.044 716.614 916.962C718.66 919.011 720.294 922.176 721.463 926.002C722.631 929.822 723.323 934.262 723.515 938.821C723.9 947.961 722.27 957.474 718.526 963.386C717.181 965.508 714.356 967.285 710.8 968.385C707.261 969.481 703.077 969.88 699.114 969.318C693.344 968.503 689.733 966.947 687.336 963.684C684.911 960.381 683.663 955.248 682.885 947.084Z" fill="white" stroke="#FF553E"/>
</svg>
