<svg width="100" height="100" viewBox="0 0 100 100" fill="none" xmlns="http://www.w3.org/2000/svg">
<circle cx="50" cy="50" r="50" fill="#FF553E"/>
<path d="M22.928 38.6C26.1493 38.6 28.6133 39.1867 30.32 40.36C32.048 41.5333 32.912 43.368 32.912 45.864C32.912 47.1653 32.6773 48.2853 32.208 49.224C31.76 50.1413 31.0987 50.8987 30.224 51.496C29.3493 52.072 28.2827 52.4987 27.024 52.776C25.7653 53.0533 24.3253 53.192 22.704 53.192H20.688V61H16.656V39.144C17.5947 38.9307 18.6293 38.792 19.76 38.728C20.912 38.6427 21.968 38.6 22.928 38.6ZM23.216 42.088C22.192 42.088 21.3493 42.12 20.688 42.184V49.736H22.64C24.5813 49.736 26.0747 49.4693 27.12 48.936C28.1653 48.3813 28.688 47.3467 28.688 45.832C28.688 45.1067 28.5493 44.4987 28.272 44.008C27.9947 43.5173 27.6107 43.1333 27.12 42.856C26.6293 42.5787 26.0427 42.3867 25.36 42.28C24.6987 42.152 23.984 42.088 23.216 42.088ZM50.8015 41.32C51.1428 42.472 51.5055 43.6773 51.8895 44.936C52.2735 46.1733 52.6682 47.4213 53.0735 48.68C53.5002 49.9173 53.9162 51.144 54.3215 52.36C54.7482 53.5547 55.1535 54.6853 55.5375 55.752C55.8575 54.6 56.1668 53.352 56.4655 52.008C56.7642 50.6427 57.0628 49.2347 57.3615 47.784C57.6602 46.312 57.9482 44.8187 58.2255 43.304C58.5242 41.7893 58.8015 40.296 59.0575 38.824H63.2175C62.4708 42.8347 61.6388 46.696 60.7215 50.408C59.8042 54.0987 58.7802 57.6293 57.6495 61H53.8095C52.1455 56.6907 50.5348 51.9867 48.9775 46.888C48.1882 49.4693 47.3882 51.9227 46.5775 54.248C45.7668 56.5733 44.9562 58.824 44.1455 61H40.3055C39.1535 57.6293 38.1188 54.0987 37.2015 50.408C36.3055 46.696 35.4842 42.8347 34.7375 38.824H39.0575C39.3135 40.2747 39.5802 41.7573 39.8575 43.272C40.1562 44.7867 40.4548 46.28 40.7535 47.752C41.0735 49.2027 41.3935 50.6107 41.7135 51.976C42.0335 53.3413 42.3535 54.6 42.6735 55.752C43.0788 54.664 43.4842 53.5227 43.8895 52.328C44.3162 51.112 44.7322 49.8853 45.1375 48.648C45.5428 47.3893 45.9268 46.1413 46.2895 44.904C46.6735 43.6667 47.0255 42.472 47.3455 41.32H50.8015ZM80.8448 61C80.5461 60.1253 80.2368 59.2613 79.9167 58.408C79.5968 57.5547 79.2874 56.68 78.9888 55.784H69.6448C69.3461 56.68 69.0368 57.5653 68.7168 58.44C68.4181 59.2933 68.1194 60.1467 67.8208 61H63.6288C64.4608 58.632 65.2501 56.4453 65.9968 54.44C66.7434 52.4347 67.4688 50.536 68.1727 48.744C68.8981 46.952 69.6128 45.2453 70.3168 43.624C71.0208 42.0027 71.7461 40.4027 72.4928 38.824H76.3008C77.0474 40.4027 77.7728 42.0027 78.4768 43.624C79.1808 45.2453 79.8848 46.952 80.5888 48.744C81.3141 50.536 82.0501 52.4347 82.7968 54.44C83.5648 56.4453 84.3648 58.632 85.1968 61H80.8448ZM74.3168 43.112C73.8261 44.2427 73.2608 45.6187 72.6208 47.24C72.0021 48.8613 71.3514 50.6213 70.6688 52.52H77.9648C77.2821 50.6213 76.6208 48.8507 75.9808 47.208C75.3408 45.5653 74.7861 44.2 74.3168 43.112Z" fill="white"/>
</svg>
