<svg width="100" height="100" viewBox="0 0 100 100" fill="none" xmlns="http://www.w3.org/2000/svg">
<circle cx="50" cy="50" r="50" fill="#FF553E"/>
<path fill-rule="evenodd" clip-rule="evenodd" d="M61.5607 22.0249C60.274 22.12 58.6291 22.6352 57.0773 23.4291C54.8122 24.5879 52.7381 26.1027 50.1125 28.5158L49.4897 29.0881L49.0782 28.6668C48.1017 27.6671 46.1668 26.0776 44.845 25.1891C42.6681 23.7258 40.8322 22.8398 38.8953 22.3176C38.0484 22.0893 38.004 22.0848 36.6067 22.0854L35.1817 22.0861L34.5585 22.3102C32.1717 23.1686 30.6947 25.3634 30.1296 28.8913C29.9868 29.7827 29.9688 30.1316 29.9709 31.9557C29.9729 33.6341 30.0017 34.2526 30.1272 35.3051C30.288 36.6537 30.5392 38.1405 30.7743 39.1343C30.8503 39.4557 30.9035 39.7271 30.8924 39.7374C30.8812 39.7477 30.4811 39.8729 30.0033 40.0156C29.5254 40.1584 29.0249 40.3172 28.8911 40.3684C28.7573 40.4197 28.2568 40.6059 27.7789 40.7822C25.1885 41.7378 22.7381 43.0242 20.9146 44.3857C19.9757 45.0868 18.52 46.5646 18.0196 47.3246C17.5671 48.0118 17.1993 48.8316 17.0762 49.427C16.9641 49.9689 16.978 51.0933 17.1027 51.5674C17.4105 52.7379 18.1607 53.9103 19.4023 55.1612C21.8136 57.5906 25.3362 59.5628 29.8535 61.0125C30.4019 61.1885 30.8766 61.3487 30.9084 61.3683C30.9402 61.3881 30.9363 61.5058 30.9 61.63C30.7671 62.0836 30.2838 64.5936 30.2183 65.1704C30.1812 65.4966 30.1103 66.0618 30.0607 66.4264C30.0033 66.8484 29.9707 67.8499 29.9711 69.1827C29.9717 71.016 29.9907 71.3888 30.1248 72.1843C30.8057 76.2279 32.6318 78.4749 35.5752 78.891C38.652 79.326 42.6377 77.8065 46.7119 74.6452C47.4582 74.0661 47.833 73.7425 49.2389 72.4635L49.6722 72.0694L50.1773 72.5449C54.5157 76.6294 59.0189 78.9884 62.499 79C64.9415 79.008 66.6709 77.9279 67.8295 75.6707C68.5133 74.3387 68.9929 72.4272 69.1449 70.4269C69.2468 69.0864 69.1773 66.6346 68.9999 65.3099C68.766 63.564 68.5303 62.1536 68.3858 61.6364L68.2465 61.1378L68.9525 60.9163C70.0703 60.5657 71.93 59.8553 73.0645 59.3455C77.492 57.3558 80.5372 54.8707 81.5894 52.3885C82.1369 51.0971 82.1369 49.5877 81.5894 48.2963C80.223 45.073 75.6896 42.1777 68.668 40.0442C68.0789 39.8652 68.0739 39.8507 68.3063 39.0087C68.5263 38.2119 68.6377 37.6258 68.8229 36.2915C69.0878 34.3828 69.1372 33.7295 69.1372 32.1381C69.1372 30.0448 68.9142 28.402 68.4304 26.9316C67.2779 23.4288 64.9605 21.7735 61.5607 22.0249ZM37.7471 24.91C40.3667 25.4175 43.6732 27.3841 47.0514 30.4439L47.6605 30.9956L47.0802 31.6326C45.7108 33.1358 43.9001 35.4021 42.6271 37.2059C42.4445 37.4647 42.267 37.6938 42.2327 37.7151C42.1983 37.7364 41.5987 37.8129 40.9003 37.8852C39.3229 38.0483 36.8468 38.4328 35.1279 38.7816C34.4101 38.9272 33.808 39.0315 33.7898 39.0133C33.7717 38.995 33.7567 38.899 33.7566 38.7998C33.7565 38.7007 33.6765 38.3213 33.5788 37.9567C33.3043 36.9316 33.2157 36.4555 33.0233 34.9713C32.4231 30.3405 33.0511 26.617 34.6441 25.362C34.9747 25.1014 35.3898 24.9264 35.9463 24.813C36.3064 24.7396 37.0839 24.7816 37.7471 24.91ZM63.5812 24.8802C64.6423 25.1942 65.4825 26.4581 65.9654 28.4668C66.1924 29.4107 66.2784 30.1228 66.3322 31.5022C66.3862 32.8844 66.2664 34.7162 66.0334 36.0727C65.9378 36.6291 65.8167 37.3591 65.7643 37.6948C65.7118 38.0304 65.614 38.4804 65.5467 38.6945C65.4435 39.0233 65.4023 39.0791 65.2824 39.0529C64.2324 38.8235 62.2075 38.426 61.6649 38.3426C61.2826 38.2839 60.6727 38.1899 60.3095 38.1337C59.7029 38.0399 57.2009 37.7473 57.0051 37.7473C56.9588 37.7473 56.7611 37.5197 56.5657 37.2415C55.8598 36.2359 55.5887 35.868 54.9526 35.0527C54.0337 33.8749 53.0922 32.7444 52.2626 31.8226L51.5461 31.0267L51.7398 30.8217C52.0094 30.5364 54.2554 28.6511 54.8877 28.1793C57.1474 26.4933 59.3223 25.3613 61.1088 24.9416C61.9647 24.7405 63.0204 24.7143 63.5812 24.8802ZM51.3335 34.993C52.191 36.0382 53.2195 37.3651 53.2195 37.4264C53.2195 37.4495 51.5773 37.4682 49.5702 37.4682C47.5631 37.4682 45.921 37.4519 45.921 37.4319C45.921 37.3221 47.4865 35.4052 49.0142 33.6443L49.5702 33.0034L50.0789 33.5437C50.3587 33.8409 50.9232 34.4931 51.3335 34.993ZM52.9762 40.2579C53.6644 40.2933 54.4849 40.344 54.7996 40.3705L55.3719 40.4188L56.4023 41.9963C57.7362 44.0382 57.7413 44.0466 58.5576 45.5626C58.9399 46.2726 59.6779 47.6385 60.1977 48.5979C60.7175 49.5574 61.143 50.3834 61.1432 50.4335C61.1437 50.5464 59.7791 53.2234 59.0733 54.4942C58.403 55.7009 57.6567 56.947 56.1113 59.4391L55.4234 60.5484L54.7559 60.5937C52.0498 60.7769 47.9613 60.8269 45.6777 60.7047C43.6635 60.5968 43.885 60.6803 43.303 59.8096C41.9362 57.7646 40.1348 54.6417 38.4554 51.406L37.9933 50.5157L38.643 49.2079C39.8305 46.8175 41.3085 44.1981 42.557 42.2712C42.8139 41.8747 43.1889 41.2963 43.3903 40.9858L43.7564 40.4214L45.3426 40.3672C46.2151 40.3374 47.3042 40.2908 47.763 40.2636C49.0267 40.1886 51.5741 40.1858 52.9762 40.2579ZM40.1517 40.7227C40.1517 40.7472 39.9851 41.022 39.7815 41.3333C38.9964 42.5334 38.0126 44.1835 37.3637 45.3881C36.9915 46.0789 36.6442 46.7032 36.5918 46.7754C36.5048 46.8952 36.4763 46.8556 36.265 46.3218C35.854 45.2837 35.4162 44.1394 35.3205 43.853C35.2692 43.6995 35.0841 43.1518 34.9092 42.6359C34.6847 41.9741 34.6146 41.6834 34.6708 41.6485C34.7565 41.5954 35.6452 41.4086 36.989 41.1613C37.675 41.0351 38.3054 40.9387 40.0995 40.6854C40.1282 40.6813 40.1517 40.6982 40.1517 40.7227ZM60.657 41.1322C61.7407 41.2971 64.6223 41.8452 64.6739 41.8963C64.761 41.9826 62.7961 47.0986 62.6764 47.0973C62.6351 47.0968 62.5649 46.9791 62.1568 46.2255C61.711 45.4025 61.2 44.4945 61.0286 44.2208C60.9389 44.0777 60.8656 43.9459 60.8656 43.9279C60.8656 43.8696 59.7001 41.9518 59.3306 41.4022L58.972 40.8687L59.2063 40.908C59.3352 40.9295 59.988 41.0304 60.657 41.1322ZM32.1856 43.6109C32.9838 46.0099 33.5663 47.5365 34.5749 49.8722L34.854 50.5186L34.4389 51.4771C33.6041 53.4052 32.4222 56.5904 31.9556 58.1697L31.8078 58.6701L31.201 58.472C30.8672 58.3631 30.2031 58.1477 29.7252 57.9935C28.3272 57.5421 26.4837 56.7715 25.5199 56.2354C23.5859 55.1598 22.2512 54.2524 21.5231 53.5182C20.8508 52.8403 20.5601 52.385 20.2164 51.4711C19.8736 50.5596 19.8756 50.1061 20.2257 49.3663C20.5583 48.663 21.0872 48.0078 21.8925 47.3014C23.7554 45.6671 26.9133 44.0417 30.5552 42.8427C31.2266 42.6217 31.7819 42.4456 31.7895 42.4513C31.7971 42.4571 31.9753 42.9789 32.1856 43.6109ZM67.9836 42.6344C68.6921 42.8296 70.6981 43.5352 71.5044 43.8729C74.9885 45.3321 77.6715 47.1637 78.7916 48.8475C79.5807 50.0338 79.5257 50.9619 78.5915 52.2227C77.8084 53.2796 76.1508 54.5986 74.1767 55.7357C73.6506 56.0387 71.5343 57.0674 70.8402 57.3574C70.0898 57.671 67.8054 58.4716 67.6611 58.4716C67.6097 58.4716 67.4455 58.0862 67.2673 57.5471C66.6386 55.6452 65.7696 53.4508 64.8727 51.5005C64.4096 50.4933 64.3572 50.3228 64.4726 50.1994C64.7153 49.9399 66.4904 45.3987 67.1647 43.3122C67.3104 42.8613 67.4382 42.4923 67.4486 42.4923C67.459 42.4923 67.6997 42.5563 67.9836 42.6344ZM48.811 44.6584C46.7517 44.9828 45.0429 46.3042 44.2343 48.1972C43.3997 50.1509 43.7353 52.5163 45.0782 54.1453C45.8378 55.0668 46.7253 55.6657 47.9368 56.0743C48.4856 56.2594 48.6042 56.2736 49.605 56.2736C50.6038 56.2736 50.7255 56.2592 51.2732 56.0754C52.6603 55.6099 53.6797 54.8455 54.452 53.6918C54.8454 53.1042 54.9969 52.781 55.2105 52.0745C55.3735 51.535 55.3968 51.338 55.3984 50.482C55.4001 49.6163 55.379 49.4353 55.213 48.8918C54.7233 47.2878 53.7461 46.0758 52.3159 45.2983C51.3452 44.7706 49.8411 44.496 48.811 44.6584ZM63.2788 55.0525C63.6239 55.8999 64.2474 57.5568 64.5129 58.3321C64.6377 58.6967 64.7607 59.0439 64.786 59.1037C64.8405 59.2317 64.4799 59.3266 62.6728 59.6597C61.7084 59.8375 59.2327 60.2159 59.0329 60.216C58.9999 60.2161 59.026 60.1347 59.0909 60.0352C59.565 59.3088 61.1596 56.5935 61.638 55.6979C62.1148 54.8053 62.4424 54.1866 62.5709 53.936L62.6961 53.6918L62.8667 54.0756C62.9604 54.2866 63.1459 54.7262 63.2788 55.0525ZM37.267 55.1733C37.873 56.3101 39.077 58.3831 39.9484 59.7899C40.1004 60.0352 40.2117 60.249 40.1957 60.2649C40.1494 60.3113 37.6633 59.9485 36.2591 59.6904C34.6239 59.3898 34.5214 59.3684 34.5214 59.3271C34.5214 59.2792 35.0346 57.7004 35.2417 57.1109C35.7018 55.8019 36.4699 53.8657 36.5282 53.8678C36.5522 53.8687 36.8847 54.4561 37.267 55.1733ZM65.6429 62.3618C65.6883 62.5825 65.8202 63.1712 65.936 63.6701C66.5036 66.1148 66.5894 69.7195 66.1444 72.4232C65.8854 73.997 64.7926 75.6384 63.7155 76.0716C63.3945 76.2007 63.1994 76.2251 62.499 76.2237C61.5575 76.2217 60.758 76.0493 59.5978 75.5979C58.9778 75.3566 57.5236 74.6257 56.9883 74.2861C56.0034 73.6615 55.5973 73.3842 54.9225 72.8758C53.7775 72.013 51.7737 70.293 51.7011 70.1106C51.688 70.0775 51.8913 69.8114 52.1529 69.5192C53.4553 68.0648 55.128 65.9314 56.4721 64.0109L56.9661 63.3051L57.4735 63.2568C59.6278 63.052 62.9625 62.5358 64.6886 62.1399C65.09 62.0479 65.4504 61.9698 65.4894 61.9666C65.5285 61.9633 65.5976 62.1411 65.6429 62.3618ZM34.6604 62.2333C35.9707 62.5063 38.3434 62.8643 40.0126 63.0408C40.9493 63.1398 41.8408 63.2364 41.9937 63.2554C42.2169 63.283 42.3059 63.3401 42.4455 63.545C43.3455 64.8664 45.463 67.5395 46.8835 69.1478C47.1717 69.474 47.4664 69.8082 47.5383 69.8905C47.6689 70.0399 47.6679 70.0413 46.8523 70.8541C44.8557 72.8435 42.4698 74.3823 39.4566 75.6239C38.3029 76.0992 38.0081 76.1605 36.9195 76.1519C35.3241 76.1391 34.6171 75.8332 33.9691 74.8751C32.7123 73.0173 32.3674 69.2852 33.0593 65.0283C33.137 64.55 33.2007 64.061 33.2007 63.9418C33.2007 63.7717 33.4805 62.6468 33.655 62.1158C33.6721 62.0636 33.7495 62.0411 33.8421 62.0612C33.929 62.0802 34.2972 62.1575 34.6604 62.2333ZM53.2496 63.6876C52.7882 64.3961 51.8513 65.5651 50.5095 67.106C49.7429 67.9865 49.7058 68.0183 49.5791 67.9051C49.267 67.626 47.1418 65.1116 46.4128 64.1586C46.2072 63.8899 46.0087 63.6309 45.9715 63.5829C45.9176 63.5133 46.6613 63.4957 49.6393 63.4957H53.3745L53.2496 63.6876Z" fill="white"/>
</svg>
