<svg width="16" height="18" viewBox="0 0 16 18" fill="none" xmlns="http://www.w3.org/2000/svg">
<path d="M8.00006 1.8C7.05707 1.8 6.1527 2.17928 5.4859 2.85442C4.81911 3.52955 4.44451 4.44522 4.44451 5.4C4.44451 6.35478 4.81911 7.27045 5.4859 7.94558C6.1527 8.62072 7.05707 9 8.00006 9C8.94305 9 9.84742 8.62072 10.5142 7.94558C11.181 7.27045 11.5556 6.35478 11.5556 5.4C11.5556 4.44522 11.181 3.52955 10.5142 2.85442C9.84742 2.17928 8.94305 1.8 8.00006 1.8ZM2.66673 5.4C2.66673 3.96783 3.22863 2.59432 4.22883 1.58162C5.22902 0.568927 6.58557 0 8.00006 0C9.41455 0 10.7711 0.568927 11.7713 1.58162C12.7715 2.59432 13.3334 3.96783 13.3334 5.4C13.3334 6.83217 12.7715 8.20568 11.7713 9.21838C10.7711 10.2311 9.41455 10.8 8.00006 10.8C6.58557 10.8 5.22902 10.2311 4.22883 9.21838C3.22863 8.20568 2.66673 6.83217 2.66673 5.4ZM4.44451 14.4C3.73726 14.4 3.05898 14.6845 2.55889 15.1908C2.05879 15.6972 1.77784 16.3839 1.77784 17.1C1.77784 17.3387 1.68419 17.5676 1.51749 17.7364C1.35079 17.9052 1.1247 18 0.88895 18C0.653202 18 0.42711 17.9052 0.260411 17.7364C0.0937115 17.5676 6.10352e-05 17.3387 6.10352e-05 17.1C6.10352e-05 15.9065 0.468314 14.7619 1.30181 13.918C2.1353 13.0741 3.26577 12.6 4.44451 12.6H11.5556C12.7344 12.6 13.8648 13.0741 14.6983 13.918C15.5318 14.7619 16.0001 15.9065 16.0001 17.1C16.0001 17.3387 15.9064 17.5676 15.7397 17.7364C15.573 17.9052 15.3469 18 15.1112 18C14.8754 18 14.6493 17.9052 14.4826 17.7364C14.3159 17.5676 14.2223 17.3387 14.2223 17.1C14.2223 16.3839 13.9413 15.6972 13.4412 15.1908C12.9411 14.6845 12.2629 14.4 11.5556 14.4H4.44451Z" fill="#FF553E"/>
</svg>
