<svg width="1441" height="575" viewBox="0 0 1441 575" fill="none" xmlns="http://www.w3.org/2000/svg">
<g clip-path="url(#clip0_241_20)">
<rect width="1441" height="575" fill="#FFFCF5"/>
<path opacity="0.1" d="M1429 138L1675.19 227.605L1806.18 454.493L1760.69 712.5L1559.99 880.902H1298.01L1097.31 712.5L1051.82 454.493L1182.81 227.605L1429 138Z" fill="#FF553E"/>
<path opacity="0.1" d="M50 -47L186.914 2.83253L259.764 129.013L234.463 272.5L122.85 366.155H-22.8503L-134.463 272.5L-159.764 129.013L-86.9138 2.83253L50 -47Z" fill="#FF553E"/>
<path opacity="0.1" d="M462 383L504.424 398.441L526.997 437.539L519.158 482L484.573 511.02H439.427L404.842 482L397.003 437.539L419.576 398.441L462 383Z" fill="#FF553E"/>
<path opacity="0.1" d="M755 -101L830.849 -73.3932L871.207 -3.49049L857.191 76L795.358 127.884H714.642L652.809 76L638.793 -3.49049L679.151 -73.3932L755 -101Z" fill="#FF553E"/>
</g>
<defs>
<clipPath id="clip0_241_20">
<rect width="1441" height="575" fill="white"/>
</clipPath>
</defs>
</svg>
